<svg width="597" height="912" viewBox="0 0 597 912" fill="none" xmlns="http://www.w3.org/2000/svg">
<rect width="597" height="912" fill="#4D7BFF"/>
<line y1="132.386" x2="597" y2="132.386" stroke="white"/>
<line y1="716.721" x2="597" y2="716.721" stroke="white"/>
<line y1="444.031" x2="597" y2="444.031" stroke="white"/>
<line y1="93.4299" x2="597" y2="93.4299" stroke="white"/>
<line y1="677.766" x2="597" y2="677.766" stroke="white"/>
<line y1="405.076" x2="597" y2="405.076" stroke="white"/>
<line y1="54.4744" x2="597" y2="54.4744" stroke="white"/>
<line y1="638.81" x2="597" y2="638.81" stroke="white"/>
<line y1="366.12" x2="597" y2="366.12" stroke="white"/>
<line y1="15.5186" x2="597" y2="15.5186" stroke="white"/>
<line y1="599.854" x2="597" y2="599.854" stroke="white"/>
<line y1="327.164" x2="597" y2="327.164" stroke="white"/>
<line y1="911.5" x2="597" y2="911.5" stroke="white"/>
<line y1="560.898" x2="597" y2="560.898" stroke="white"/>
<line y1="288.208" x2="597" y2="288.208" stroke="white"/>
<line y1="872.544" x2="597" y2="872.544" stroke="white"/>
<line y1="521.943" x2="597" y2="521.943" stroke="white"/>
<line y1="249.253" x2="597" y2="249.253" stroke="white"/>
<line y1="833.588" x2="597" y2="833.588" stroke="white"/>
<line y1="482.987" x2="597" y2="482.987" stroke="white"/>
<line y1="171.341" x2="597" y2="171.341" stroke="white"/>
<line y1="755.677" x2="597" y2="755.677" stroke="white"/>
<line y1="210.297" x2="597" y2="210.297" stroke="white"/>
<line y1="794.633" x2="597" y2="794.633" stroke="white"/>
<line x1="185.19" y1="2.18923e-08" x2="185.19" y2="912" stroke="white"/>
<line x1="443.757" y1="2.18923e-08" x2="443.757" y2="912" stroke="white"/>
<line x1="222.128" y1="2.18923e-08" x2="222.128" y2="912" stroke="white"/>
<line x1="480.695" y1="2.18923e-08" x2="480.695" y2="912" stroke="white"/>
<line x1="259.067" y1="2.18923e-08" x2="259.067" y2="912" stroke="white"/>
<line x1="517.633" y1="2.18923e-08" x2="517.633" y2="912" stroke="white"/>
<line x1="296.004" y1="2.18923e-08" x2="296.004" y2="912" stroke="white"/>
<line x1="554.572" y1="2.18923e-08" x2="554.572" y2="912" stroke="white"/>
<line x1="0.499512" y1="2.18923e-08" x2="0.499472" y2="912" stroke="white"/>
<line x1="332.943" y1="2.18923e-08" x2="332.943" y2="912" stroke="white"/>
<line x1="591.51" y1="2.18923e-08" x2="591.51" y2="912" stroke="white"/>
<line x1="37.438" y1="2.18923e-08" x2="37.438" y2="912" stroke="white"/>
<line x1="369.881" y1="2.18923e-08" x2="369.881" y2="912" stroke="white"/>
<line x1="74.376" y1="2.18923e-08" x2="74.3759" y2="912" stroke="white"/>
<line x1="406.819" y1="2.18923e-08" x2="406.819" y2="912" stroke="white"/>
<line x1="148.252" y1="2.18923e-08" x2="148.252" y2="912" stroke="white"/>
<line x1="111.314" y1="2.18923e-08" x2="111.314" y2="912" stroke="white"/>
</svg>
